# xmcd
#
# Track frame offsets:
#	150
#	3280
#	20447
#	36062
#	56985
#	75688
#	95114
#	109651
#	129404
#	146032
#	163771
#	181936
#	197660
#	212473
#	217248
#	234394
#	253543
#	277141
#	296746
#	312349
#	331156
#	353169
#
# Disc length: 4784 seconds
#
# Revision: 0
# Processed by: cddbd v1.5.1PL2 Copyright (c) Steve Scherf et al.
# Submitted via: dBpowerAMP V4.0
#
DISCID=4c12ae16
DTITLE=Pépe Moreno - O Cantador Do Risca Faca
DYEAR=2005
DGENRE=Country
TTITLE0=Abertura
TTITLE1=Risca Faca
TTITLE2=Boca Do Lixo
TTITLE3=Americana Quer Beber
TTITLE4=Fica Comigo
TTITLE5=O Bagulho É Louco
TTITLE6=Tereza
TTITLE7=Olha o Xote Aí/Psiu
TTITLE8=Mina
TTITLE9=Pra Sempre Vou Te Amar
TTITLE10=Estou Apaixonado Por Você
TTITLE11=Loirinha
TTITLE12=De Pai Pra Filho
TTITLE13=Abertura 2 
TTITLE14=Risca Faca (Forró)
TTITLE15=Boca do Lixo (Forró)
TTITLE16=Reggae Não Sou Fudido
TTITLE17=Vem Ficar Comigo
TTITLE18=Locutor
TTITLE19=Mix
TTITLE20=Estripe Forró
TTITLE21=Entrevista
EXTD=Atualizado por: Fernando Vilela De Lima \ne-mail: vileladelima@msn.com
EXTT0=
EXTT1=
EXTT2=
EXTT3=
EXTT4=
EXTT5=
EXTT6=
EXTT7=
EXTT8=
EXTT9=
EXTT10=
EXTT11=
EXTT12=
EXTT13=
EXTT14=
EXTT15=
EXTT16=
EXTT17=
EXTT18=
EXTT19=
EXTT20=
EXTT21=
PLAYORDER=
